<svg width="60" height="29" viewBox="0 0 60 29" fill="none" xmlns="http://www.w3.org/2000/svg">
<g clip-path="url(#clip0_938_201)">
<path d="M6.17741 4.20822L5.04523 4.58466L10.7212 21.6561L11.8534 21.2797L6.17741 4.20822Z" fill="#F9C306"/>
<path d="M5.72454 4.73705L6.5377 4.46669L4.77708 1.88741L4.91139 5.00741L5.72454 4.73705Z" fill="#F9C306"/>
<path d="M11.0967 20.8946L10.2835 21.1649L12.0433 23.7418L11.9098 20.6242L11.0967 20.8946Z" fill="#F9C306"/>
<path d="M5.7096 5.45324C3.3421 6.2404 2.26911 2.38827 2.26911 2.38827C2.26911 2.38827 0.75616 4.16728 1.88227 7.55422C3.00837 10.9412 5.28535 11.4601 5.28535 11.4601C5.28535 11.4601 3.83816 7.73238 6.20566 6.94522C7.9711 6.35824 9.03851 6.00334 9.03851 6.00334L8.79048 5.25735L8.54245 4.51136C8.54245 4.51136 7.47503 4.86626 5.7096 5.45324ZM4.55782 10.5539C4.55782 10.5539 3.02687 9.74694 2.25646 7.42981C1.48605 5.11268 2.22825 3.5473 2.22825 3.5473C2.22825 3.5473 1.92007 5.16017 2.63226 7.3022C3.34524 9.44663 4.55782 10.5539 4.55782 10.5539Z" fill="#F9C306"/>
<path d="M7.09767 0.782818C7.09767 0.782818 8.54485 4.51053 6.17735 5.29769C4.41192 5.88467 3.3445 6.23957 3.3445 6.23957L3.59253 6.98556L3.84056 7.73155C3.84056 7.73155 4.90798 7.37665 6.67341 6.78967C9.04091 6.00252 10.1139 9.85465 10.1139 9.85465C10.1139 9.85465 11.6269 8.07563 10.5007 4.68869C9.37464 1.30174 7.09767 0.782818 7.09767 0.782818ZM10.142 8.6972C10.142 8.6972 10.4502 7.08433 9.73796 4.9423C9.02498 2.79788 7.81319 1.69304 7.81319 1.69304C7.81319 1.69304 9.34415 2.49996 10.1146 4.81709C10.8826 7.13502 10.142 8.6972 10.142 8.6972Z" fill="#F9C306"/>
</g>
<g clip-path="url(#clip1_938_201)">
<path d="M59.2115 10.4696C58.9027 10.3341 58.5892 10.2066 58.2579 10.1308C57.8093 10.0275 57.4732 10.1534 57.2867 10.5196C57.1516 10.7842 56.9796 11.0133 56.7818 11.2295C56.6435 11.3796 56.5551 11.5474 56.5567 11.7587C56.5583 11.9265 56.5052 12.0653 56.3541 12.1766C56.166 12.3153 56.0373 12.5283 56.0807 12.759C56.1274 13.0091 56.0068 13.1543 55.8685 13.3124C55.7977 13.3947 55.7222 13.4754 55.6643 13.5657C55.5694 13.7109 55.4633 13.7835 55.28 13.7238C55.1787 13.6916 55.0661 13.7319 54.9584 13.748C54.5467 13.811 54.2042 14.4418 54.5869 14.8306C54.6866 14.9323 54.7815 15.0404 54.8812 15.142C54.9552 15.2179 54.9809 15.284 54.9182 15.3889C54.6834 15.7858 54.4599 16.1908 54.2332 16.5925C54.2074 16.6377 54.1882 16.6941 54.1158 16.6812C53.6591 16.6038 53.2009 16.5263 52.7217 16.4457C52.8342 16.2472 52.9339 16.0714 53.032 15.8955C53.6881 14.7145 54.1078 13.456 54.2637 12.1104C54.3779 11.1279 54.3602 10.1453 54.357 9.15789C54.3506 7.68162 53.873 6.39089 52.9629 5.2486C52.6574 4.86461 52.2907 4.55322 51.8148 4.4064C51.0992 4.18536 50.366 4.06436 49.6167 4.04984C48.2113 4.02241 46.9089 4.38865 45.7109 5.10823C44.5644 5.79716 43.6093 6.66517 43.2234 8.01721C43.18 8.16726 43.069 8.25761 42.905 8.25116C42.7908 8.24632 42.6751 8.24309 42.5625 8.2205C41.7666 8.05916 40.9931 7.81231 40.2052 7.61709C39.8724 7.5348 39.8724 7.52996 39.7743 7.86717C39.6698 8.22857 39.6537 8.60449 39.5942 8.97235C39.5251 9.39345 39.4479 9.81294 39.3819 10.2357C39.3739 10.2889 39.3064 10.4018 39.4591 10.3809C40.0878 10.2937 40.731 10.3163 41.3501 10.1356C41.5672 10.0727 41.7923 10.0501 42.0367 10.1388C41.8711 10.2905 41.7199 10.4228 41.5431 10.5245C41.1266 10.7649 40.7101 11.0052 40.2969 11.2505C40.0621 11.3892 40.0332 11.4796 40.1216 11.7377C40.2406 12.0895 40.3644 12.4412 40.4882 12.7929C40.6876 13.3592 40.805 13.4092 41.3485 13.1575C41.7457 12.9736 42.1477 12.8058 42.5722 12.6622C42.5915 12.7413 42.6124 12.8139 42.6268 12.8849C42.7892 13.6238 42.9259 14.3708 43.1928 15.084C43.3392 15.476 43.4871 15.8681 43.6447 16.2569C43.7026 16.4005 43.7219 16.4908 43.5257 16.515C43.3729 16.5344 43.2234 16.586 43.0722 16.6135C42.1541 16.7796 41.3115 17.1346 40.5461 17.667C40.1264 17.9591 39.8338 18.3705 39.5862 18.8125C39.0893 19.6999 38.6841 20.6196 38.5844 21.6489C38.5764 21.7328 38.5651 21.7909 38.6825 21.7925C39.3996 21.8103 40.1152 21.8974 40.8339 21.8716C41.6878 21.8393 42.5432 21.8038 43.3954 21.8441C45.5968 21.949 47.7981 21.9958 50.0026 21.9748C51.609 21.9603 53.2153 21.9264 54.8201 21.8942C55.3893 21.8829 55.9569 21.8538 56.5245 21.8006C56.8011 21.7748 56.904 21.6925 56.9764 21.4198C57.0005 21.3279 57.015 21.2343 57.0343 21.1407C57.1098 20.7728 56.9667 20.4292 56.9056 20.0775C56.7882 19.3966 56.6081 18.7383 56.1386 18.1994C56.0309 18.0768 56.0421 17.9429 56.1258 17.8042C56.301 17.5137 56.4699 17.2201 56.6419 16.9281C56.9088 16.4731 56.9088 16.4731 57.4137 16.6312C57.8688 16.7732 58.2402 16.5554 58.3464 16.0907C58.4203 15.7729 58.3013 15.5212 58.0955 15.2921C57.7964 14.9581 57.7916 14.9533 58.0232 14.5644C58.6149 13.5657 59.0892 12.5073 59.5475 11.4425C59.726 11.0214 59.599 10.6406 59.2115 10.4696ZM42.6188 11.2118C42.6172 11.2118 42.6172 11.2118 42.6188 11.2118C42.6188 11.4167 42.6075 11.62 42.622 11.8232C42.6365 12.0169 42.5448 12.1346 42.3889 12.2121C41.9949 12.4057 41.5993 12.5993 41.199 12.7816C40.998 12.8736 40.8323 12.7994 40.7632 12.5896C40.6699 12.3073 40.5944 12.0185 40.5156 11.7313C40.4802 11.6054 40.5284 11.4877 40.6297 11.428C41.215 11.0762 41.7859 10.6987 42.4194 10.4309C42.6172 10.3486 42.6284 10.4131 42.6204 10.5793C42.6108 10.7907 42.6188 11.002 42.6188 11.2118ZM42.6638 9.54189C42.13 9.52737 41.6283 9.71129 41.1121 9.80649C40.8211 9.85973 40.53 9.93395 40.2631 9.90974C39.7823 9.90974 39.7904 9.90974 39.8065 9.45315C39.8225 8.97558 39.9592 8.5206 40.0348 8.05271C40.0573 7.90911 40.1361 7.89621 40.247 7.91234C40.9787 8.02044 41.6926 8.19469 42.3615 8.5206C42.5078 8.59159 42.651 8.66742 42.8005 8.73518C42.8986 8.78036 42.95 8.82553 42.9082 8.94976C42.8616 9.08852 42.8455 9.24018 42.8182 9.38539C42.8005 9.47574 42.7716 9.5435 42.6638 9.54189ZM56.5792 20.4211C56.6178 20.6744 56.695 20.9229 56.703 21.181C56.7094 21.4069 56.6403 21.4908 56.412 21.5069C55.764 21.5537 55.1176 21.5908 54.4695 21.6328C53.7926 21.678 53.1156 21.6554 52.4387 21.6828C50.7648 21.749 49.0909 21.728 47.4186 21.7054C46.3107 21.6893 45.2012 21.6231 44.0933 21.5795C43.1446 21.5424 42.1959 21.5731 41.2488 21.5457C40.5188 21.5247 39.7888 21.494 39.0587 21.4698C38.9623 21.4666 38.9012 21.4537 38.9285 21.3311C39.16 20.3017 39.4945 19.3143 40.1522 18.4753C40.7407 17.7267 41.5302 17.2911 42.4564 17.0975C42.8777 16.9313 43.3295 16.9119 43.7653 16.8168C43.7974 16.8103 43.8328 16.8103 43.865 16.8022C44.2043 16.7135 44.2638 16.5522 44.082 16.2053C43.8119 15.902 43.6447 15.5357 43.4951 15.1662C43.2491 14.5548 43.1205 13.911 43.0192 13.2592C42.8841 12.3879 42.8729 11.5119 42.9082 10.6374C42.9661 9.23695 43.2893 7.90427 44.1689 6.77811C44.8105 5.95527 45.6514 5.37606 46.613 4.97593C47.335 4.67584 48.0875 4.50159 48.8674 4.43383C49.6135 4.36768 50.3483 4.38059 51.0783 4.57581C51.9933 4.82105 52.6606 5.36477 53.1317 6.18277C53.6832 7.1379 53.9614 8.15758 53.9791 9.26277C53.9888 9.8807 54 10.497 53.9695 11.115C53.873 13.0656 53.3809 14.8871 52.22 16.4892C52.1798 16.5441 52.138 16.5973 52.0978 16.6522C52.1509 16.8506 52.3245 16.8716 52.4805 16.8942C52.8455 16.9474 53.2121 16.9813 53.5787 17.0249C53.6028 17.0281 53.6254 17.0475 53.6479 17.0604C54.283 17.1685 54.8056 17.5025 55.2848 17.9106C56.0582 18.5689 56.4281 19.4385 56.5792 20.4211ZM56.5487 16.3989C56.367 16.8426 56.0823 17.2233 55.8363 17.6283C55.8058 17.6783 55.7656 17.6832 55.7157 17.6557C55.2896 17.4105 55.1272 17.2524 55.4166 16.7958C55.4713 16.7103 55.5372 16.6296 55.579 16.5376C55.6385 16.4102 55.6321 16.3069 55.4456 16.3295C55.2414 16.4763 55.1208 16.6941 55.0018 16.9039C54.8973 17.0894 54.7992 16.9749 54.6866 16.9378C54.5628 16.8974 54.5242 16.841 54.5676 16.7006C54.6802 16.3263 54.8506 15.9858 55.0806 15.6712C55.1706 15.4518 55.3169 15.426 55.5308 15.5051C55.9408 15.6551 56.2431 15.9407 56.531 16.2504C56.5744 16.2989 56.5712 16.3408 56.5487 16.3989ZM57.9203 15.8794C58.0103 16.0262 57.9508 16.1601 57.8608 16.2666C57.7627 16.3844 57.6389 16.3166 57.5279 16.2585C56.6532 15.8068 55.8508 15.2372 55.0323 14.6935C54.8506 14.5725 54.8137 14.4144 54.9005 14.2805C55.0211 14.1788 55.1513 14.1304 55.3073 14.1998C56.0373 14.5209 56.7577 14.8597 57.4073 15.3356C57.6131 15.4873 57.7884 15.6616 57.9203 15.8794ZM59.1214 11.5167C58.7307 12.6364 58.1695 13.6738 57.4909 14.6467C57.4202 14.7484 57.3494 14.7742 57.2433 14.6903C57.1645 14.6274 57.0712 14.5838 56.9844 14.5322C56.6902 14.4095 56.4168 14.245 56.1499 14.0723C55.9473 13.9417 55.9408 13.7642 56.1322 13.6061C56.4072 13.3818 56.5551 13.1172 56.4924 12.7558C56.4715 12.6364 56.5197 12.5412 56.6146 12.4718C56.8397 12.3089 56.9346 12.0943 56.9458 11.812C56.9555 11.5377 57.1549 11.3328 57.2931 11.1085C57.3912 10.9472 57.5118 10.7987 57.6244 10.6455C57.7273 10.5051 57.8511 10.4567 58.0312 10.5083C58.2837 10.5825 58.5297 10.6729 58.7741 10.7713C59.2002 10.9101 59.3079 10.9843 59.1214 11.5167Z" fill="#F9C306"/>
<path d="M46.4743 17.5125C46.8008 17.5609 47.1223 17.6415 47.4488 17.6851C47.9022 17.7464 48.3605 17.7738 48.8123 17.84C49.2015 17.8981 49.5809 17.8868 49.9492 17.7529C50.6615 17.4931 51.3626 17.2043 51.9897 16.7671C52.0331 16.738 52.0636 16.6912 52.1006 16.6509C52.1408 16.596 52.1826 16.5428 52.2228 16.4879C53.3838 14.8858 53.8758 13.0643 53.9723 11.1137C54.0029 10.4974 53.9916 9.88103 53.982 9.26148C53.9643 8.1563 53.6845 7.13662 53.1346 6.18148C52.6634 5.3651 51.9961 4.81976 51.0812 4.57452C50.3512 4.3793 49.6163 4.36639 48.8702 4.43254C48.0903 4.50031 47.3378 4.67456 46.6158 4.97465C45.6527 5.37478 44.8101 5.9556 44.1685 6.77844C43.2905 7.9046 42.9657 9.23728 42.9079 10.6377C42.8725 11.5122 42.8837 12.3883 43.0188 13.2595C43.1185 13.9113 43.2471 14.5535 43.4948 15.1666C43.6443 15.536 43.8115 15.9023 44.0817 16.2056C44.3631 16.3282 44.6059 16.5121 44.8229 16.7235C45.286 17.172 45.8408 17.4189 46.4743 17.5125ZM45.6494 8.77423C45.8408 8.68872 46.0386 8.7581 46.1849 8.73067C46.8377 8.73874 47.4263 8.61128 48.018 8.50802C49.0889 8.31925 50.1662 8.26601 51.25 8.35152C51.4928 8.37088 51.734 8.39347 51.972 8.44671C52.3579 8.53383 52.5702 8.79843 52.6232 9.16952C52.7744 10.2166 52.5348 11.1814 52.0234 12.1027C51.5652 12.9272 50.8239 13.2886 49.9604 13.4596C49.3494 13.5806 48.7319 13.6209 48.1048 13.558C47.7028 13.5177 47.2976 13.508 46.8972 13.437C46.2267 13.3192 45.7861 12.9304 45.5642 12.2963C45.315 11.58 45.1172 10.8459 44.987 10.0972C44.8776 9.47284 45.1204 9.01463 45.6494 8.77423Z" fill="#F9C306"/>
<path d="M55.286 17.9093C54.8068 17.5012 54.2859 17.1672 53.6491 17.0591C53.4529 17.1026 53.3822 17.2866 53.2809 17.4189C52.6554 18.2417 51.9044 18.929 51.0522 19.5002C50.5312 19.8503 49.954 20.0616 49.3188 20.1294C48.8107 20.1826 48.2962 20.2101 47.7993 20.1472C47.2092 20.0713 46.6094 19.9842 46.0466 19.7599C45.9019 19.7018 45.7588 19.6389 45.6076 19.6034C44.8937 19.434 44.3261 18.9694 43.6845 18.6531C43.4015 18.5128 43.2101 18.2675 43.0686 17.9949C42.9207 17.7077 42.7406 17.4495 42.5155 17.222C42.4817 17.1865 42.4544 17.1494 42.456 17.0978C41.5298 17.2914 40.7387 17.727 40.1518 18.4757C39.4941 19.3146 39.1597 20.302 38.9281 21.3314C38.9008 21.454 38.9619 21.4669 39.0584 21.4701C39.7884 21.4943 40.5184 21.525 41.2484 21.546C42.1955 21.575 43.1442 21.5428 44.0929 21.5799C45.2008 21.6234 46.3103 21.6896 47.4182 21.7057C49.0921 21.7299 50.766 21.7493 52.4383 21.6831C53.1153 21.6557 53.7922 21.6783 54.4692 21.6331C55.1172 21.5895 55.7636 21.5524 56.4116 21.5073C56.6399 21.4911 56.7091 21.4072 56.7026 21.1813C56.6962 20.9232 56.6174 20.6747 56.5788 20.4214C56.4277 19.4389 56.0578 18.5692 55.286 17.9093Z" fill="#F9C306"/>
<path d="M43.0349 17.8238C43.2439 18.2401 43.535 18.5628 43.9724 18.7435C44.0592 18.779 44.1444 18.8225 44.2248 18.8758C45.1462 19.4857 46.1817 19.7761 47.2494 19.9987C47.9859 20.152 48.7175 20.1375 49.4507 20.0584C50.0296 19.9955 50.5618 19.768 51.0474 19.4389C51.9431 18.8322 52.7117 18.0949 53.3629 17.2301C53.4337 17.1381 53.4964 17.0171 53.6491 17.0575C53.625 17.0446 53.6041 17.0252 53.58 17.022C53.2134 16.9784 52.8468 16.9429 52.4817 16.8913C52.3274 16.8687 52.1521 16.8493 52.099 16.6493C52.0749 16.7267 52.0428 16.7977 51.9672 16.8461C51.2243 17.3205 50.4364 17.6964 49.5745 17.8948C49.1484 17.9933 48.7255 17.8706 48.301 17.8368C47.6514 17.7867 47.0114 17.6706 46.3714 17.556C45.7878 17.4511 45.2539 17.222 44.8246 16.7977C44.5962 16.5718 44.3084 16.425 44.0785 16.204C44.2602 16.5509 44.2023 16.7122 43.8614 16.8009C43.8292 16.809 43.7955 16.809 43.7617 16.8155C43.3259 16.9107 42.8741 16.93 42.4528 17.0962C42.694 17.3027 42.8934 17.5431 43.0349 17.8238Z" fill="#F9C306"/>
<path d="M46.373 17.5576C47.013 17.6722 47.653 17.7867 48.3026 17.8384C48.7271 17.8722 49.15 17.9949 49.5761 17.8964C50.438 17.698 51.2243 17.3221 51.9688 16.8477C52.0427 16.8009 52.0749 16.73 52.1006 16.6509C52.0636 16.6896 52.0331 16.7364 51.9897 16.7671C51.361 17.2043 50.6615 17.4915 49.9492 17.7529C49.5809 17.8868 49.2014 17.8981 48.8123 17.84C48.3605 17.7738 47.9022 17.7464 47.4488 17.6851C47.1223 17.6415 46.8007 17.5609 46.4743 17.5125C45.8408 17.4189 45.286 17.1736 44.8229 16.7219C44.6043 16.5105 44.3631 16.3266 44.0817 16.204C44.3116 16.425 44.5994 16.5718 44.8278 16.7977C45.2555 17.2237 45.7893 17.4528 46.373 17.5576Z" fill="#F9C306"/>
<path d="M42.5155 17.222C42.7406 17.4495 42.9207 17.7077 43.0686 17.9948C43.2101 18.2691 43.4015 18.5144 43.6845 18.6531C44.3261 18.9693 44.8937 19.434 45.6076 19.6034C45.7588 19.6389 45.9019 19.7035 46.0466 19.7599C46.6094 19.9826 47.2092 20.0713 47.7993 20.1471C48.2962 20.2101 48.8107 20.1826 49.3188 20.1294C49.954 20.0632 50.5312 19.8503 51.0522 19.5002C51.9061 18.9274 52.657 18.2417 53.2809 17.4189C53.3822 17.2849 53.4529 17.1026 53.6491 17.0591C53.4963 17.0203 53.432 17.1397 53.3629 17.2317C52.7116 18.0949 51.9414 18.8338 51.0474 19.4405C50.5618 19.7696 50.0296 19.9971 49.4507 20.06C48.7174 20.1391 47.9858 20.1536 47.2494 20.0003C46.1817 19.7761 45.1461 19.4873 44.2248 18.8774C44.146 18.8241 44.0608 18.7806 43.9723 18.7451C43.535 18.566 43.2439 18.2433 43.0349 17.8254C42.8934 17.5447 42.694 17.3043 42.456 17.0994C42.4544 17.1494 42.4801 17.1865 42.5155 17.222Z" fill="#F9C306"/>
<path d="M58.2254 11.8075C58.3653 11.5154 58.5357 11.2395 58.6949 10.9572C58.7287 10.8975 58.7705 10.8442 58.7753 10.7749C58.5309 10.6765 58.2849 10.5861 58.0324 10.5119C57.8523 10.4603 57.7285 10.5087 57.6256 10.649C57.5131 10.8023 57.3925 10.9507 57.2944 11.1121C57.1577 11.3363 56.9583 11.5429 56.9471 11.8155C56.9358 12.0979 56.8409 12.3125 56.6158 12.4754C56.5209 12.5448 56.4727 12.64 56.4936 12.7594C56.5563 13.1224 56.4084 13.387 56.1334 13.6096C55.9405 13.7661 55.9485 13.9436 56.1511 14.0759C56.418 14.2485 56.6898 14.4131 56.9856 14.5357C57.1239 14.1017 57.3667 13.7161 57.5468 13.3015C57.7639 12.7981 57.9874 12.2995 58.2254 11.8075Z" fill="#F9C306"/>
<path d="M42.8002 8.7371C42.6522 8.67095 42.5075 8.59351 42.3612 8.52252C41.6923 8.19661 40.9783 8.02236 40.2467 7.91426C40.1357 7.89813 40.0586 7.91103 40.0344 8.05463C39.9589 8.5209 39.8222 8.97588 39.8061 9.45507C39.79 9.91166 39.782 9.91166 40.2628 9.91166C40.5297 9.93586 40.8207 9.86165 41.1118 9.8084C41.6279 9.71321 42.128 9.52928 42.6635 9.5438C42.7712 9.54703 42.8002 9.47765 42.8162 9.39053C42.8436 9.24371 42.8596 9.09366 42.9063 8.95491C42.9497 8.82745 42.8982 8.78227 42.8002 8.7371Z" fill="#F9C306"/>
<path d="M42.4191 10.4328C41.7855 10.7007 41.2147 11.0782 40.6294 11.4299C40.5281 11.4912 40.4815 11.6074 40.5152 11.7332C40.594 12.0204 40.6696 12.3092 40.7628 12.5916C40.832 12.8029 40.9976 12.8755 41.1986 12.7836C41.599 12.6013 41.9929 12.4077 42.3885 12.214C42.5445 12.1366 42.6361 12.0188 42.6217 11.8252C42.6072 11.6219 42.6184 11.417 42.6184 11.2137C42.6184 11.0024 42.6104 10.7926 42.6201 10.5813C42.6281 10.4135 42.6152 10.3489 42.4191 10.4328Z" fill="#F9C306"/>
<path d="M58.7753 10.7733C58.8348 10.8523 58.7769 10.9168 58.7416 10.9765C58.1096 12.0349 57.6851 13.195 57.1336 14.2937C57.0918 14.3776 57.0693 14.4744 56.9857 14.5325C57.0725 14.5841 57.1657 14.6277 57.2445 14.6906C57.3507 14.7761 57.4214 14.7487 57.4922 14.6471C58.1707 13.6742 58.7319 12.6367 59.1227 11.517C59.3076 10.9846 59.1998 10.9104 58.7753 10.7733Z" fill="#F9C306"/>
<path d="M57.1336 14.2937C57.6851 13.195 58.1096 12.0349 58.7416 10.9765C58.7785 10.9152 58.8348 10.8523 58.7753 10.7733C58.7705 10.8442 58.7287 10.8975 58.6949 10.9556C58.5357 11.2379 58.3653 11.5138 58.2254 11.8058C57.9874 12.2979 57.7639 12.7965 57.5468 13.2982C57.3667 13.7129 57.1239 14.0985 56.9857 14.5325C57.0693 14.4744 57.0918 14.3776 57.1336 14.2937Z" fill="#F9C306"/>
<path d="M55.5304 15.507C55.3166 15.4296 55.1702 15.4538 55.0802 15.6732C55.2603 15.6829 55.4082 15.7894 55.5771 15.8329C55.6494 15.8523 55.6253 15.8894 55.6028 15.9394C55.5449 16.0685 55.4677 16.1879 55.4452 16.3299C55.6317 16.3073 55.6382 16.4105 55.5787 16.538C55.5369 16.6283 55.4693 16.709 55.4163 16.7961C55.1284 17.2527 55.2908 17.4108 55.7153 17.6561C55.7636 17.6835 55.8054 17.6787 55.8359 17.6287C56.082 17.2237 56.3666 16.8413 56.5483 16.3992C56.5724 16.3412 56.574 16.2992 56.5306 16.2524C56.2412 15.9426 55.9405 15.6571 55.5304 15.507Z" fill="#F9C306"/>
<path d="M57.7269 15.8716C56.984 15.5554 56.2813 15.1634 55.6221 14.6922C55.397 14.5309 55.1574 14.3873 54.9001 14.2808C54.8133 14.4147 54.8486 14.5728 55.032 14.6939C55.8504 15.2376 56.6528 15.8071 57.5275 16.2589C57.6385 16.3153 57.7623 16.3847 57.8604 16.2669C57.9504 16.1604 58.0099 16.0249 57.9199 15.8797C57.8523 16.0088 57.78 15.8942 57.7269 15.8716Z" fill="#F9C306"/>
<path d="M57.407 15.336C56.759 14.86 56.0386 14.5212 55.307 14.2001C55.1494 14.1308 55.0207 14.1792 54.9001 14.2808C55.0545 14.2566 55.1671 14.3566 55.2877 14.4244C55.635 14.6212 55.9566 14.8584 56.2894 15.0762C56.7606 15.3844 57.2751 15.6086 57.7816 15.8442C57.825 15.8636 57.8717 15.8749 57.9183 15.8781C57.7881 15.6619 57.6128 15.4876 57.407 15.336Z" fill="#F9C306"/>
<path d="M56.2894 15.0762C55.955 14.8584 55.635 14.6212 55.2877 14.4244C55.1687 14.3566 55.0561 14.2566 54.9001 14.2808C55.1574 14.3889 55.3954 14.5325 55.6221 14.6922C56.2814 15.1617 56.9841 15.5538 57.727 15.8716C57.78 15.8942 57.8524 16.0088 57.9199 15.8797C57.8733 15.8748 57.825 15.8652 57.7832 15.8458C57.2751 15.6086 56.7606 15.3844 56.2894 15.0762Z" fill="#F9C306"/>
<path d="M55.4902 16.0701C55.553 15.9394 55.5465 15.8636 55.3906 15.8152C55.2828 15.7829 55.1654 15.7619 55.0802 15.6748C54.8503 15.9878 54.6782 16.3282 54.5673 16.7042C54.5255 16.8445 54.5624 16.8994 54.6863 16.9413C54.7988 16.9784 54.8953 17.093 55.0014 16.9075C55.1204 16.6977 55.241 16.4815 55.4452 16.3331C55.368 16.2298 55.4517 16.1491 55.4902 16.0701Z" fill="#F9C306"/>
<path d="M55.5755 15.8345C55.4066 15.791 55.2587 15.6829 55.0786 15.6748C55.1638 15.7619 55.2828 15.7829 55.389 15.8152C55.5465 15.8636 55.553 15.9394 55.4886 16.0701C55.4501 16.1475 55.368 16.2282 55.442 16.3298C55.4645 16.1879 55.5433 16.0685 55.5996 15.9394C55.6237 15.891 55.6478 15.8539 55.5755 15.8345Z" fill="#F9C306"/>
<path d="M45.5626 12.2963C45.7829 12.9303 46.2251 13.3208 46.8956 13.437C47.296 13.5063 47.7012 13.5176 48.1032 13.558C48.7303 13.6193 49.3478 13.5806 49.9588 13.4595C50.8239 13.2885 51.5652 12.9271 52.0218 12.1027C52.5332 11.183 52.7728 10.2166 52.6216 9.16949C52.5686 8.7984 52.3563 8.53381 51.9704 8.44668C51.7324 8.39344 51.4912 8.37085 51.2484 8.35149C50.163 8.26437 49.0873 8.31922 48.0164 8.50799C47.4247 8.61286 46.8361 8.73871 46.1833 8.73064C46.037 8.75807 45.8392 8.68708 45.6478 8.7742C45.1188 9.01299 44.876 9.47281 44.9838 10.0972C45.1156 10.8474 45.3134 11.5799 45.5626 12.2963ZM45.8601 9.24048C47.0307 9.00815 48.2077 8.83551 49.4008 8.76452C50.1614 8.71935 50.9172 8.72419 51.6697 8.85003C52.0797 8.9178 52.247 9.10334 52.2598 9.52283C52.2663 9.70998 52.345 9.89552 52.2695 10.0843C52.2502 10.9491 51.9222 11.6977 51.3787 12.3495C51.0619 12.7287 50.6438 12.9546 50.1325 12.9868C49.9315 12.9997 49.7321 13.053 49.5375 13.1111C49.187 13.2159 48.8365 13.2369 48.473 13.1982C48.0083 13.1482 47.542 13.1336 47.0789 13.0675C46.4759 12.982 46.0627 12.6415 45.8215 12.0946C45.5514 11.4815 45.4259 10.8281 45.3343 10.1682C45.3311 10.1537 45.3279 10.1408 45.3262 10.1279C45.2169 9.52121 45.3584 9.34051 45.8601 9.24048Z" fill="#F9C306"/>
<path d="M45.3375 10.1666C45.3343 10.1521 45.3327 10.1392 45.3295 10.1263C45.3311 10.1392 45.3327 10.1521 45.3375 10.1666Z" fill="#F9C306"/>
<path d="M47.3169 10.2779C47.0773 10.2715 46.8281 10.5554 46.8168 10.8507C46.8072 11.0879 46.9921 11.2912 47.2204 11.296C47.5002 11.3008 47.8218 11.0395 47.8266 10.7991C47.8315 10.5635 47.5581 10.2844 47.3169 10.2779Z" fill="#F9C306"/>
<path d="M50.7886 10.1166C50.5361 10.1182 50.3062 10.3973 50.311 10.699C50.3142 10.9798 50.4879 11.1814 50.7258 11.1782C50.996 11.1766 51.2324 10.9104 51.2227 10.6167C51.2131 10.3489 51.0121 10.1166 50.7886 10.1166Z" fill="#F9C306"/>
</g>
<g clip-path="url(#clip2_938_201)">
<path d="M38.8331 14.4833C38.4443 14.3124 38.0494 14.1517 37.6323 14.0561C37.0674 13.9259 36.6442 14.0845 36.4093 14.5463C36.2392 14.8799 36.0226 15.1688 35.7735 15.4414C35.5994 15.6306 35.488 15.8422 35.49 16.1087C35.492 16.3202 35.4252 16.4952 35.2349 16.6355C34.998 16.8105 34.836 17.079 34.8907 17.3699C34.9494 17.6852 34.7975 17.8683 34.6234 18.0677C34.5343 18.1714 34.4391 18.2732 34.3662 18.3871C34.2468 18.5702 34.1131 18.6617 33.8823 18.5864C33.7547 18.5458 33.613 18.5966 33.4773 18.617C32.959 18.6963 32.5277 19.4917 33.0096 19.982C33.1351 20.1101 33.2546 20.2464 33.3801 20.3746C33.4733 20.4702 33.5057 20.5536 33.4267 20.6858C33.1311 21.1863 32.8496 21.6969 32.5641 22.2034C32.5317 22.2604 32.5074 22.3316 32.4163 22.3153C31.8412 22.2177 31.2642 22.12 30.6607 22.0183C30.8025 21.7681 30.928 21.5463 31.0515 21.3246C31.8777 19.8355 32.4062 18.2487 32.6026 16.5521C32.7463 15.3132 32.7241 14.0744 32.72 12.8294C32.7119 10.968 32.1105 9.34054 30.9645 7.90026C30.5798 7.41609 30.1181 7.02347 29.5187 6.83835C28.6177 6.55965 27.6943 6.40708 26.7508 6.38877C24.981 6.35419 23.3409 6.81598 21.8324 7.72327C20.3887 8.59192 19.1859 9.68637 18.6999 11.3911C18.6453 11.5803 18.5056 11.6942 18.299 11.6861C18.1553 11.68 18.0095 11.6759 17.8677 11.6474C16.8654 11.444 15.8915 11.1328 14.8993 10.8866C14.4801 10.7829 14.4801 10.7768 14.3566 11.2019C14.225 11.6576 14.2048 12.1316 14.1298 12.5954C14.0428 13.1264 13.9456 13.6553 13.8626 14.1883C13.8524 14.2554 13.7674 14.3978 13.9598 14.3714C14.7515 14.2615 15.5614 14.29 16.341 14.0622C16.6143 13.9828 16.8978 13.9543 17.2056 14.0662C16.997 14.2574 16.8067 14.4243 16.584 14.5524C16.0595 14.8555 15.5351 15.1586 15.0147 15.4679C14.7191 15.6428 14.6826 15.7567 14.794 16.0822C14.9438 16.5257 15.0997 16.9692 15.2557 17.4126C15.5067 18.1267 15.6546 18.1898 16.339 17.8724C16.8391 17.6405 17.3453 17.4289 17.8799 17.2479C17.9042 17.3476 17.9305 17.4391 17.9487 17.5286C18.1532 18.4603 18.3253 19.4022 18.6615 20.3014C18.8457 20.7957 19.032 21.29 19.2305 21.7803C19.3033 21.9613 19.3276 22.0753 19.0806 22.1058C18.8882 22.1302 18.6999 22.1953 18.5096 22.2299C17.3534 22.4394 16.2924 22.8869 15.3286 23.5583C14.8001 23.9265 14.4315 24.4452 14.1197 25.0026C13.494 26.1215 12.9838 27.281 12.8582 28.5789C12.8481 28.6847 12.8339 28.7579 12.9818 28.76C13.8848 28.7824 14.7859 28.8922 15.691 28.8597C16.7662 28.819 17.8434 28.7742 18.9166 28.8251C21.6886 28.9573 24.4606 29.0163 27.2367 28.9899C29.2595 28.9715 31.2824 28.9288 33.3032 28.8881C34.02 28.8739 34.7348 28.8373 35.4495 28.7701C35.7978 28.7376 35.9274 28.6339 36.0185 28.2901C36.0489 28.1741 36.0671 28.0561 36.0914 27.9381C36.1866 27.4743 36.0064 27.041 35.9294 26.5975C35.7816 25.739 35.5548 24.909 34.9636 24.2296C34.8279 24.075 34.8421 23.9061 34.9474 23.7312C35.1681 23.365 35.3807 22.9948 35.5973 22.6266C35.9335 22.0529 35.9335 22.0529 36.5693 22.2522C37.1423 22.4313 37.61 22.1566 37.7437 21.5708C37.8368 21.17 37.687 20.8526 37.4278 20.5638C37.0512 20.1427 37.0451 20.1366 37.3367 19.6463C38.0818 18.3871 38.6792 17.0526 39.2563 15.7099C39.481 15.179 39.321 14.6989 38.8331 14.4833ZM17.9386 15.419C17.9366 15.419 17.9366 15.419 17.9386 15.419C17.9386 15.6774 17.9244 15.9337 17.9426 16.19C17.9609 16.4341 17.8454 16.5827 17.649 16.6803C17.1529 16.9244 16.6548 17.1685 16.1506 17.3984C15.8975 17.5144 15.689 17.4208 15.6019 17.1563C15.4845 16.8003 15.3893 16.4362 15.2901 16.0741C15.2455 15.9154 15.3063 15.7669 15.4338 15.6916C16.1709 15.2482 16.8897 14.7721 17.6875 14.4344C17.9366 14.3307 17.9507 14.4121 17.9406 14.6216C17.9285 14.8881 17.9386 15.1546 17.9386 15.419ZM17.9953 13.3135C17.323 13.2952 16.6913 13.5271 16.0413 13.6472C15.6748 13.7143 15.3083 13.8079 14.9722 13.7774C14.3668 13.7774 14.3769 13.7774 14.3971 13.2016C14.4174 12.5995 14.5895 12.0258 14.6847 11.4359C14.713 11.2548 14.8122 11.2385 14.9519 11.2589C15.8732 11.3952 16.7723 11.6149 17.6146 12.0258C17.7989 12.1153 17.9791 12.2109 18.1674 12.2964C18.2909 12.3533 18.3557 12.4103 18.3031 12.5669C18.2443 12.7419 18.2241 12.9331 18.1897 13.1162C18.1674 13.2301 18.131 13.3156 17.9953 13.3135ZM35.5184 27.0308C35.567 27.3502 35.6642 27.6635 35.6743 27.989C35.6824 28.2738 35.5953 28.3796 35.3078 28.3999C34.4918 28.4589 33.6778 28.5057 32.8618 28.5586C32.0093 28.6155 31.1568 28.5871 30.3044 28.6216C28.1965 28.705 26.0886 28.6786 23.9828 28.6501C22.5877 28.6298 21.1905 28.5464 19.7954 28.4914C18.6007 28.4447 17.4061 28.4833 16.2134 28.4487C15.2941 28.4223 14.3749 28.3836 13.4556 28.3531C13.3341 28.349 13.2571 28.3328 13.2916 28.1782C13.5831 26.8803 14.0043 25.6353 14.8325 24.5775C15.5736 23.6335 16.5678 23.0843 17.7341 22.8402C18.2646 22.6306 18.8336 22.6062 19.3823 22.4862C19.4228 22.4781 19.4674 22.4781 19.5079 22.4679C19.9351 22.356 20.01 22.1526 19.7812 21.7152C19.441 21.3327 19.2304 20.871 19.0421 20.4051C18.7323 19.6341 18.5703 18.8224 18.4428 18.0006C18.2727 16.902 18.2585 15.7974 18.3031 14.6948C18.376 12.929 18.783 11.2487 19.8906 9.82877C20.6985 8.79128 21.7575 8.06097 22.9683 7.55646C23.8775 7.17808 24.8251 6.95838 25.8072 6.87294C26.7467 6.78953 27.6721 6.8058 28.5913 7.05195C29.7435 7.36117 30.5838 8.04673 31.1771 9.07812C31.8716 10.2824 32.2219 11.5681 32.2442 12.9616C32.2563 13.7407 32.2705 14.5178 32.232 15.297C32.1105 17.7564 31.4909 20.0532 30.029 22.0732C29.9784 22.1424 29.9257 22.2095 29.8751 22.2787C29.9419 22.5289 30.1606 22.5554 30.357 22.5838C30.8167 22.651 31.2783 22.6937 31.74 22.7486C31.7704 22.7527 31.7987 22.7771 31.8271 22.7934C32.6269 22.9297 33.285 23.3508 33.8884 23.8654C34.8623 24.6954 35.328 25.7919 35.5184 27.0308ZM35.4799 21.9593C35.2511 22.5187 34.8927 22.9988 34.5829 23.5094C34.5444 23.5725 34.4938 23.5786 34.431 23.544C33.8944 23.2348 33.6899 23.0355 34.0544 22.4597C34.1232 22.3519 34.2063 22.2502 34.2589 22.1343C34.3338 21.9735 34.3257 21.8434 34.0909 21.8718C33.8337 22.057 33.6818 22.3316 33.532 22.596C33.4004 22.83 33.2769 22.6856 33.1351 22.6388C32.9792 22.5879 32.9306 22.5167 32.9853 22.3397C33.127 21.8678 33.3417 21.4385 33.6312 21.0418C33.7446 20.7652 33.9289 20.7326 34.1982 20.8323C34.7145 21.0215 35.0952 21.3816 35.4576 21.7722C35.5123 21.8332 35.5082 21.8861 35.4799 21.9593ZM37.2071 21.3043C37.3205 21.4894 37.2456 21.6582 37.1322 21.7925C37.0087 21.941 36.8528 21.8556 36.713 21.7823C35.6115 21.2127 34.6011 20.4946 33.5705 19.8091C33.3417 19.6565 33.2951 19.4571 33.4044 19.2883C33.5563 19.1601 33.7203 19.0991 33.9167 19.1866C34.836 19.5914 35.7431 20.0186 36.5612 20.6187C36.8204 20.8099 37.0411 21.0296 37.2071 21.3043ZM38.7197 15.8035C38.2276 17.2153 37.521 18.5234 36.6665 19.7501C36.5774 19.8782 36.4883 19.9108 36.3546 19.805C36.2554 19.7256 36.138 19.6707 36.0286 19.6056C35.6581 19.451 35.3139 19.2435 34.9777 19.0258C34.7226 18.8611 34.7145 18.6373 34.9555 18.4379C35.3017 18.1552 35.488 17.8215 35.409 17.3659C35.3827 17.2153 35.4435 17.0953 35.5629 17.0078C35.8464 16.8024 35.9659 16.5318 35.98 16.1758C35.9922 15.83 36.2433 15.5716 36.4174 15.2888C36.5409 15.0854 36.6928 14.8983 36.8345 14.705C36.9641 14.528 37.12 14.467 37.3468 14.5321C37.6647 14.6257 37.9745 14.7396 38.2823 14.8637C38.8189 15.0386 38.9545 15.1322 38.7197 15.8035Z" fill="#F9C306"/>
<path d="M22.7943 23.3629C23.2053 23.4239 23.6103 23.5257 24.0214 23.5806C24.5924 23.6579 25.1694 23.6925 25.7384 23.7759C26.2284 23.8491 26.7063 23.8349 27.17 23.666C28.067 23.3385 28.9499 22.9744 29.7395 22.4231C29.7942 22.3864 29.8327 22.3274 29.8793 22.2766C29.9299 22.2074 29.9825 22.1403 30.0331 22.0711C31.4951 20.0511 32.1147 17.7543 32.2362 15.2949C32.2747 14.5178 32.2605 13.7407 32.2483 12.9595C32.2261 11.566 31.8737 10.2803 31.1812 9.07601C30.588 8.04666 29.7476 7.35906 28.5955 7.04985C27.6762 6.8037 26.7509 6.78742 25.8113 6.87083C24.8293 6.95627 23.8816 7.17597 22.9725 7.55435C21.7596 8.05886 20.6986 8.79121 19.8907 9.8287C18.7851 11.2486 18.3761 12.929 18.3032 14.6947C18.2586 15.7973 18.2728 16.902 18.4429 18.0005C18.5684 18.8223 18.7304 19.632 19.0422 20.405C19.2306 20.8709 19.4411 21.3327 19.7813 21.7151C20.1357 21.8697 20.4414 22.1016 20.7148 22.3681C21.2979 22.9337 21.9965 23.2449 22.7943 23.3629ZM21.7555 12.3451C21.9965 12.2373 22.2456 12.3248 22.4298 12.2902C23.2519 12.3004 23.993 12.1397 24.7382 12.0095C26.0867 11.7715 27.4434 11.7043 28.8081 11.8121C29.1139 11.8366 29.4176 11.865 29.7173 11.9322C30.2032 12.042 30.4705 12.3756 30.5373 12.8435C30.7277 14.1638 30.426 15.3803 29.7821 16.5419C29.205 17.5814 28.2715 18.0371 27.1842 18.2527C26.4147 18.4053 25.6372 18.4562 24.8475 18.3768C24.3413 18.326 23.831 18.3138 23.3268 18.2243C22.4825 18.0758 21.9277 17.5855 21.6482 16.786C21.3344 15.8828 21.0853 14.9572 20.9213 14.0133C20.7836 13.226 21.0894 12.6482 21.7555 12.3451Z" fill="#F9C306"/>
<path d="M33.8905 23.8633C33.2871 23.3487 32.631 22.9276 31.8292 22.7913C31.5821 22.8462 31.493 23.0781 31.3655 23.2449C30.5778 24.2824 29.6322 25.149 28.559 25.8692C27.903 26.3106 27.1761 26.5771 26.3762 26.6625C25.7364 26.7297 25.0884 26.7642 24.4627 26.6849C23.7196 26.5893 22.9644 26.4794 22.2557 26.1967C22.0734 26.1234 21.8932 26.0441 21.7029 25.9994C20.8038 25.7857 20.0891 25.1999 19.2811 24.8011C18.9248 24.6242 18.6838 24.315 18.5056 23.9712C18.3193 23.609 18.0926 23.2836 17.8091 22.9967C17.7666 22.952 17.7321 22.9052 17.7342 22.8401C16.5678 23.0842 15.5716 23.6335 14.8325 24.5774C14.0044 25.6352 13.5832 26.8802 13.2916 28.1781C13.2572 28.3327 13.3342 28.349 13.4556 28.353C14.3749 28.3836 15.2942 28.4222 16.2135 28.4486C17.4061 28.4853 18.6008 28.4446 19.7955 28.4914C21.1906 28.5463 22.5877 28.6297 23.9829 28.65C26.0907 28.6806 28.1986 28.705 30.3045 28.6216C31.1569 28.587 32.0094 28.6155 32.8618 28.5585C33.6779 28.5036 34.4918 28.4568 35.3079 28.3998C35.5954 28.3795 35.6825 28.2737 35.6744 27.9889C35.6663 27.6634 35.567 27.3501 35.5184 27.0307C35.3281 25.7919 34.8624 24.6954 33.8905 23.8633Z" fill="#F9C306"/>
<path d="M18.4631 23.7555C18.7263 24.2804 19.0928 24.6872 19.6436 24.9151C19.7529 24.9598 19.8602 25.0147 19.9615 25.0819C21.1217 25.8508 22.4257 26.217 23.7702 26.4977C24.6976 26.691 25.6189 26.6727 26.5423 26.573C27.2712 26.4937 27.9414 26.2068 28.5529 25.7918C29.6808 25.027 30.6487 24.0973 31.4687 23.0069C31.5578 22.8909 31.6368 22.7384 31.8292 22.7892C31.7988 22.7729 31.7725 22.7485 31.7421 22.7445C31.2804 22.6895 30.8188 22.6448 30.3591 22.5797C30.1647 22.5512 29.944 22.5268 29.8772 22.2745C29.8468 22.3722 29.8063 22.4617 29.7112 22.5227C28.7757 23.1208 27.7835 23.5948 26.6982 23.845C26.1616 23.9691 25.6291 23.8145 25.0945 23.7718C24.2765 23.7087 23.4706 23.5623 22.6647 23.4178C21.9296 23.2856 21.2574 22.9967 20.7168 22.4617C20.4292 22.1769 20.0668 21.9918 19.7772 21.7131C20.006 22.1504 19.9331 22.3539 19.5039 22.4658C19.4634 22.4759 19.4209 22.4759 19.3783 22.4841C18.8296 22.6041 18.2606 22.6285 17.7301 22.838C18.0338 23.0984 18.2849 23.4015 18.4631 23.7555Z" fill="#F9C306"/>
<path d="M22.6667 23.4199C23.4726 23.5643 24.2785 23.7087 25.0966 23.7738C25.6311 23.8165 26.1636 23.9711 26.7002 23.8471C27.7856 23.5968 28.7757 23.1228 29.7132 22.5248C29.8064 22.4658 29.8469 22.3763 29.8793 22.2766C29.8327 22.3254 29.7942 22.3844 29.7395 22.423C28.9478 22.9743 28.067 23.3364 27.17 23.666C26.7063 23.8348 26.2284 23.8491 25.7384 23.7759C25.1694 23.6924 24.5924 23.6579 24.0214 23.5806C23.6103 23.5256 23.2053 23.4239 22.7943 23.3629C21.9965 23.2449 21.2979 22.9357 20.7148 22.3661C20.4394 22.0996 20.1357 21.8677 19.7813 21.7131C20.0709 21.9918 20.4333 22.1769 20.7208 22.4617C21.2595 22.9988 21.9317 23.2876 22.6667 23.4199Z" fill="#F9C306"/>
<path d="M17.8091 22.9967C18.0926 23.2836 18.3193 23.609 18.5056 23.9711C18.6838 24.317 18.9248 24.6262 19.2811 24.8011C20.0891 25.1999 20.8038 25.7857 21.7029 25.9993C21.8932 26.0441 22.0734 26.1255 22.2557 26.1967C22.9644 26.4774 23.7196 26.5893 24.4627 26.6849C25.0884 26.7642 25.7364 26.7297 26.3762 26.6625C27.1761 26.5791 27.903 26.3106 28.559 25.8691C29.6342 25.147 30.5798 24.2824 31.3655 23.2449C31.493 23.0761 31.5821 22.8462 31.8292 22.7913C31.6368 22.7424 31.5558 22.893 31.4687 23.0089C30.6487 24.0973 29.6788 25.029 28.553 25.7939C27.9414 26.2089 27.2712 26.4957 26.5423 26.575C25.6189 26.6747 24.6976 26.693 23.7702 26.4998C22.4257 26.217 21.1217 25.8529 19.9615 25.0839C19.8623 25.0168 19.755 24.9618 19.6436 24.9171C19.0928 24.6913 18.7263 24.2844 18.4631 23.7575C18.2849 23.4036 18.0338 23.1005 17.7342 22.8421C17.7321 22.9052 17.7645 22.952 17.8091 22.9967Z" fill="#F9C306"/>
<path d="M37.5919 16.1696C37.7681 15.8014 37.9827 15.4535 38.1832 15.0975C38.2257 15.0223 38.2784 14.9551 38.2844 14.8676C37.9766 14.7436 37.6668 14.6296 37.3489 14.5361C37.1222 14.471 36.9662 14.532 36.8367 14.709C36.6949 14.9022 36.5431 15.0894 36.4195 15.2928C36.2474 15.5756 35.9963 15.836 35.9822 16.1798C35.968 16.5358 35.8485 16.8063 35.565 17.0118C35.4456 17.0993 35.3848 17.2193 35.4112 17.3698C35.4901 17.8276 35.3038 18.1612 34.9576 18.4419C34.7146 18.6392 34.7247 18.863 34.9799 19.0298C35.316 19.2475 35.6582 19.455 36.0308 19.6096C36.2049 19.0624 36.5107 18.5762 36.7374 18.0534C37.0108 17.4187 37.2922 16.7901 37.5919 16.1696Z" fill="#F9C306"/>
<path d="M18.1675 12.2983C17.9812 12.2149 17.799 12.1173 17.6147 12.0277C16.7724 11.6168 15.8733 11.3971 14.952 11.2608C14.8123 11.2405 14.7151 11.2567 14.6848 11.4378C14.5896 12.0257 14.4175 12.5994 14.3972 13.2036C14.377 13.7793 14.3669 13.7793 14.9723 13.7793C15.3084 13.8098 15.6749 13.7162 16.0414 13.6491C16.6914 13.5291 17.3211 13.2972 17.9954 13.3155C18.1311 13.3195 18.1675 13.2321 18.1878 13.1222C18.2222 12.9371 18.2424 12.7479 18.3011 12.5729C18.3558 12.4122 18.291 12.3553 18.1675 12.2983Z" fill="#F9C306"/>
<path d="M17.6876 14.4364C16.8898 14.7741 16.171 15.2501 15.4339 15.6936C15.3063 15.7709 15.2476 15.9174 15.2901 16.0761C15.3894 16.4382 15.4845 16.8023 15.602 17.1583C15.689 17.4248 15.8976 17.5163 16.1507 17.4004C16.6549 17.1705 17.151 16.9264 17.6491 16.6823C17.8455 16.5846 17.9609 16.4361 17.9427 16.192C17.9245 15.9357 17.9386 15.6773 17.9386 15.421C17.9386 15.1545 17.9285 14.8901 17.9407 14.6236C17.9508 14.412 17.9346 14.3306 17.6876 14.4364Z" fill="#F9C306"/>
<path d="M38.2844 14.8656C38.3593 14.9653 38.2864 15.0467 38.2419 15.1219C37.4461 16.4564 36.9116 17.9191 36.217 19.3044C36.1644 19.4102 36.1361 19.5323 36.0308 19.6055C36.1401 19.6706 36.2575 19.7255 36.3568 19.8049C36.4904 19.9127 36.5795 19.8781 36.6686 19.75C37.5231 18.5233 38.2298 17.2152 38.7218 15.8034C38.9547 15.1321 38.819 15.0385 38.2844 14.8656Z" fill="#F9C306"/>
<path d="M36.217 19.3044C36.9116 17.9191 37.4461 16.4564 38.2419 15.1219C38.2885 15.0446 38.3593 14.9653 38.2844 14.8656C38.2784 14.9551 38.2257 15.0222 38.1832 15.0955C37.9827 15.4515 37.7681 15.7993 37.5919 16.1676C37.2922 16.788 37.0108 17.4166 36.7374 18.0493C36.5107 18.5721 36.2049 19.0583 36.0308 19.6055C36.1361 19.5323 36.1644 19.4102 36.217 19.3044Z" fill="#F9C306"/>
<path d="M34.1982 20.8343C33.9289 20.7366 33.7447 20.7671 33.6313 21.0438C33.8581 21.056 34.0444 21.1903 34.257 21.2452C34.3481 21.2696 34.3177 21.3164 34.2894 21.3794C34.2165 21.5422 34.1193 21.6927 34.0909 21.8717C34.3258 21.8433 34.3339 21.9735 34.259 22.1342C34.2063 22.2481 34.1213 22.3498 34.0545 22.4597C33.692 23.0354 33.8965 23.2347 34.4311 23.5439C34.4918 23.5785 34.5445 23.5724 34.583 23.5094C34.8928 22.9987 35.2512 22.5166 35.48 21.9592C35.5103 21.886 35.5124 21.8331 35.4577 21.7741C35.0932 21.3835 34.7146 21.0234 34.1982 20.8343Z" fill="#F9C306"/>
<path d="M36.9642 21.294C36.0287 20.8953 35.1438 20.401 34.3136 19.807C34.0302 19.6035 33.7285 19.4225 33.4045 19.2882C33.2951 19.4571 33.3397 19.6564 33.5705 19.809C34.6012 20.4945 35.6116 21.2127 36.7131 21.7823C36.8528 21.8535 37.0087 21.9409 37.1322 21.7924C37.2456 21.6582 37.3206 21.4873 37.2072 21.3042C37.1221 21.4669 37.031 21.3225 36.9642 21.294Z" fill="#F9C306"/>
<path d="M36.5612 20.6186C35.7452 20.0185 34.8381 19.5913 33.9168 19.1865C33.7183 19.099 33.5563 19.16 33.4045 19.2882C33.5989 19.2577 33.7406 19.3838 33.8925 19.4692C34.3298 19.7174 34.7348 20.0165 35.154 20.2911C35.7472 20.6796 36.3952 20.9624 37.033 21.2594C37.0877 21.2838 37.1464 21.2981 37.2051 21.3021C37.0411 21.0295 36.8204 20.8098 36.5612 20.6186Z" fill="#F9C306"/>
<path d="M35.154 20.2911C34.7328 20.0165 34.3298 19.7175 33.8925 19.4693C33.7426 19.3838 33.6009 19.2577 33.4045 19.2882C33.7285 19.4245 34.0281 19.6056 34.3136 19.807C35.1438 20.399 36.0287 20.8933 36.9642 21.294C37.031 21.3225 37.1221 21.467 37.2072 21.3042C37.1484 21.2981 37.0877 21.2859 37.035 21.2615C36.3952 20.9625 35.7472 20.6797 35.154 20.2911Z" fill="#F9C306"/>
<path d="M34.1476 21.5442C34.2266 21.3795 34.2185 21.2839 34.0221 21.2228C33.8864 21.1821 33.7386 21.1557 33.6313 21.0458C33.3417 21.4405 33.1251 21.8697 32.9854 22.3437C32.9327 22.5207 32.9793 22.5899 33.1352 22.6428C33.2769 22.6896 33.3984 22.834 33.5321 22.6C33.6819 22.3356 33.8338 22.063 34.0909 21.8758C33.9937 21.7456 34.099 21.6439 34.1476 21.5442Z" fill="#F9C306"/>
<path d="M34.255 21.2472C34.0423 21.1923 33.8561 21.056 33.6293 21.0458C33.7366 21.1557 33.8864 21.1821 34.0201 21.2228C34.2185 21.2839 34.2266 21.3795 34.1456 21.5442C34.097 21.6419 33.9937 21.7436 34.0869 21.8718C34.1152 21.6927 34.2145 21.5422 34.2853 21.3795C34.3157 21.3184 34.3461 21.2716 34.255 21.2472Z" fill="#F9C306"/>
<path d="M21.6462 16.786C21.9236 17.5855 22.4804 18.0778 23.3248 18.2243C23.829 18.3117 24.3393 18.326 24.8455 18.3768C25.6352 18.4541 26.4127 18.4053 27.1821 18.2527C28.2715 18.0371 29.205 17.5814 29.78 16.5419C30.4239 15.3823 30.7256 14.1638 30.5353 12.8435C30.4685 12.3756 30.2012 12.042 29.7152 11.9322C29.4156 11.865 29.1118 11.8366 28.8061 11.8121C27.4393 11.7023 26.0847 11.7715 24.7361 12.0095C23.991 12.1417 23.2499 12.3004 22.4278 12.2902C22.2435 12.3248 21.9945 12.2353 21.7535 12.3451C21.0873 12.6462 20.7816 13.226 20.9173 14.0133C21.0833 14.9592 21.3323 15.8828 21.6462 16.786ZM22.0208 12.933C23.4949 12.6401 24.9771 12.4224 26.4795 12.3329C27.4373 12.276 28.389 12.2821 29.3366 12.4407C29.8529 12.5262 30.0635 12.7601 30.0797 13.289C30.0878 13.525 30.187 13.759 30.0919 13.997C30.0676 15.0874 29.6545 16.0313 28.9701 16.8531C28.5712 17.3312 28.0447 17.616 27.4008 17.6567C27.1477 17.673 26.8966 17.7401 26.6516 17.8133C26.2102 17.9456 25.7688 17.972 25.3112 17.9232C24.726 17.8601 24.1388 17.8418 23.5556 17.7584C22.7963 17.6506 22.2759 17.2214 21.9722 16.5317C21.632 15.7587 21.4741 14.9348 21.3587 14.1028C21.3546 14.0845 21.3506 14.0682 21.3485 14.0519C21.2109 13.287 21.389 13.0592 22.0208 12.933Z" fill="#F9C306"/>
<path d="M21.3627 14.1007C21.3587 14.0824 21.3566 14.0661 21.3526 14.0499C21.3546 14.0661 21.3566 14.0824 21.3627 14.1007Z" fill="#F9C306"/>
<path d="M23.8553 14.2411C23.5536 14.233 23.2397 14.591 23.2256 14.9633C23.2134 15.2623 23.4463 15.5186 23.7338 15.5247C24.0861 15.5308 24.4911 15.2013 24.4972 14.8982C24.5032 14.6012 24.159 14.2492 23.8553 14.2411Z" fill="#F9C306"/>
<path d="M28.227 14.0377C27.9091 14.0397 27.6195 14.3916 27.6256 14.772C27.6296 15.126 27.8483 15.3803 28.148 15.3762C28.4882 15.3742 28.7858 15.0385 28.7737 14.6683C28.7615 14.3306 28.5084 14.0377 28.227 14.0377Z" fill="#F9C306"/>
</g>
<defs>
<clipPath id="clip0_938_201">
<rect width="9.07983" height="23.3467" fill="white" transform="translate(0.374146 3.01831) rotate(-18.3912)"/>
</clipPath>
<clipPath id="clip1_938_201">
<rect width="21.05" height="17.9314" fill="white" transform="translate(38.576 4.05176)"/>
</clipPath>
<clipPath id="clip2_938_201">
<rect width="26.5074" height="22.6092" fill="white" transform="translate(12.8482 6.39075)"/>
</clipPath>
</defs>
</svg>
